#!OML:ASF H:\Terrain\Patient Classification 1\Animal2\Wednesday\Animal2.ASF
:FULLY-SPECIFIED
:DEGREES
3839
root 11.09 14.1484 -20.5721 17.1551 -6.03385 -0.397973
lowerback 24.3301 -0.953675 -0.147553
upperback 6.50908 -1.19967 1.06576
thorax -6.32778 -0.588522 1.59422
lowerneck 11.4811 11.5151 20.8632
upperneck -11.5109 16.2231 -30.72
head -0.554272 9.34752 -13.6371
rclavicle -1.4561e-014 1.55301e-014
rhumerus 32.2783 -20.6247 -48.7506
rradius 144.354
rwrist -48.0265
rhand 24.2446 33.3513
rfingers 7.12502
rthumb 48.4668 11.3592
lclavicle -1.4561e-014 1.55301e-014
lhumerus -379.62 -13.9567 431.884
lradius 77.2638
lwrist -23.1249
lhand -4.96293 33.723
lfingers 7.12502
lthumb 20.829 62.6249
rfemur -55.8554 2.31454 -12.9506
rtibia 64.8349
rfoot -33.2137 -2.9698
rtoes -39.264
lfemur -44.9791 7.03142 13.1978
ltibia 59.0976
lfoot -28.0549 5.40823
ltoes -52.1665
3840
root 11.0932 14.1408 -20.5661 17.2189 -6.01262 -0.635525
lowerback 24.2904 -0.977306 0.129903
upperback 6.54875 -1.16027 1.12798
thorax -6.26941 -0.572578 1.49019
lowerneck 11.4647 11.5031 21.1396
upperneck -11.3053 16.2874 -30.7108
head -0.452734 9.36319 -13.6591
rclavicle 1.42255e-014 -6.21202e-017
rhumerus 32.0439 -21.4046 -48.3957
rradius 144.375
rwrist -48.4087
rhand 24.5253 34.0178
rfingers 7.12502
rthumb 48.725 12.1505
lclavicle 1.42255e-014 -6.21202e-017
lhumerus -380.3 -13.1527 431.507
lradius 77.2111
lwrist -23.5545
lhand -3.88666 34.144
lfingers 7.12502
lthumb 21.8628 62.9289
rfemur -56.0356 2.38854 -12.7076
rtibia 64.964
rfoot -33.087 -2.55796
rtoes -38.3009
lfemur -45.0427 7.14873 13.4732
ltibia 59.25
lfoot -28.0278 5.50054
ltoes -52.2956
3841
root 11.0994 14.1323 -20.5514 17.1791 -6.04962 -0.679053
lowerback 24.2827 -1.01988 0.240867
upperback 6.5841 -1.18693 1.15854
thorax -6.22759 -0.586762 1.46685
lowerneck 11.8265 11.4761 21.137
upperneck -11.4592 16.2844 -30.602
head -0.572608 9.38154 -13.6627
rclavicle 2.60905e-016 1.83752e-014
rhumerus 31.8744 -22.1102 -48.026
rradius 144.427
rwrist -48.9977
rhand 24.992 34.5584
rfingers 7.12502
rthumb 49.1538 12.9025
lclavicle 2.60905e-016 1.83752e-014
lhumerus -381.08 -12.2023 431.279
lradius 77.2158
lwrist -24.0314
lhand -2.80464 34.5219
lfingers 7.12502
lthumb 22.9014 63.1819
rfemur -55.9645 2.46048 -12.7023
rtibia 65.0274
rfoot -33.2167 -2.71632
rtoes -38.0113
lfemur -44.9837 7.10179 13.5302
ltibia 59.4115
lfoot -28.0872 5.60883
ltoes -52.241
3842
root 11.1051 14.1212 -20.5346 17.0745 -6.17304 -0.665988
lowerback 24.322 -1.06034 0.210845
upperback 6.65954 -1.24544 1.17926
thorax -6.16206 -0.61576 1.5231
lowerneck 12.1867 11.4967 21.015
upperneck -11.7141 16.309 -30.5161
head -0.72056 9.42161 -13.6566
rclavicle 1.85118e-015 -8.74653e-015
rhumerus 31.9647 -22.7974 -47.8314
rradius 144.41
rwrist -49.1431
rhand 25.5851 34.755
rfingers 7.12502
rthumb 49.6978 13.375
lclavicle 1.85118e-015 -8.74653e-015
lhumerus -381.816 -11.202 431.185
lradius 77.0569
lwrist -24.6188
lhand -2.69232 34.5585
lfingers 7.12502
lthumb 23.0092 63.2051
rfemur -55.7666 2.6402 -12.8117
rtibia 65.0354
rfoot -33.4214 -2.69144
rtoes -38.3717
lfemur -44.8165 7.04305 13.5203
ltibia 59.5752
lfoot -28.2259 5.54548
ltoes -52.0451
3843
root 11.1113 14.116 -20.5182 17.0232 -6.32649 -0.584827
lowerback 24.353 -1.08068 0.118713
upperback 6.72854 -1.29348 1.19257
thorax -6.09834 -0.639387 1.60371
lowerneck 12.2836 11.5365 20.9409
upperneck -11.6937 16.3672 -30.5362
head -0.721152 9.46121 -13.6529
rclavicle -1.90336e-014 1.20637e-014
rhumerus 32.1346 -23.561 -47.7184
rradius 144.427
rwrist -48.9936
rhand 25.4369 35.1907
rfingers 7.12502
rthumb 49.5619 13.7409
lclavicle -1.90336e-014 1.20637e-014
lhumerus -382.534 -10.698 431.17
lradius 76.6684
lwrist -23.2513
lhand -5.11947 33.9
lfingers 7.12502
lthumb 20.6786 62.8184
rfemur -55.6295 2.76336 -13.0204
rtibia 65.029
rfoot -34.4876 -2.21122
rtoes -37.8169
lfemur -44.6928 6.9981 13.405
ltibia 59.7235
lfoot -28.4435 5.52382
ltoes -51.9065
